<svg xmlns="http://www.w3.org/2000/svg" width="1024" height="1024" viewBox="0 0 1024 1024" role="img" aria-labelledby="title desc">
  <title id="title">AlgVault iOS app icon</title>
  <desc id="desc">AlgVault app icon with a graphite vault shield, cyan and green signal rings, and crypto nodes.</desc>
  <defs>
    <linearGradient id="bg" x1="112" y1="64" x2="914" y2="964" gradientUnits="userSpaceOnUse">
      <stop stop-color="#132033"/>
      <stop offset="0.48" stop-color="#070b12"/>
      <stop offset="1" stop-color="#030712"/>
    </linearGradient>
    <linearGradient id="shield" x1="306" y1="178" x2="748" y2="834" gradientUnits="userSpaceOnUse">
      <stop stop-color="#e0f2fe"/>
      <stop offset="0.48" stop-color="#7dd3fc"/>
      <stop offset="1" stop-color="#34d399"/>
    </linearGradient>
    <radialGradient id="shine" cx="0" cy="0" r="1" gradientUnits="userSpaceOnUse" gradientTransform="translate(314 180) rotate(46) scale(724)">
      <stop stop-color="#ffffff" stop-opacity="0.24"/>
      <stop offset="0.36" stop-color="#7dd3fc" stop-opacity="0.1"/>
      <stop offset="1" stop-color="#020617" stop-opacity="0"/>
    </radialGradient>
  </defs>
  <rect width="1024" height="1024" rx="228" fill="url(#bg)"/>
  <rect x="56" y="56" width="912" height="912" rx="190" fill="url(#shine)"/>
  <circle cx="512" cy="512" r="404" fill="none" stroke="#7dd3fc" stroke-opacity="0.16" stroke-width="10"/>
  <circle cx="512" cy="512" r="318" fill="none" stroke="#34d399" stroke-opacity="0.2" stroke-width="8" stroke-dasharray="32 46"/>
  <path d="M512 166 748 258v178c0 184-84 318-236 414-152-96-236-230-236-414V258l236-92Z" fill="#0b111c" stroke="url(#shield)" stroke-width="26" stroke-linejoin="round"/>
  <path d="M344 680c42 46 98 88 168 132 70-44 126-86 168-132" fill="none" stroke="#34d399" stroke-width="18" stroke-linecap="round" stroke-opacity="0.74"/>
  <path d="M362 306 512 248l150 58" fill="none" stroke="#e0f2fe" stroke-width="14" stroke-linecap="round" stroke-linejoin="round" stroke-opacity="0.68"/>
  <text x="512" y="568" text-anchor="middle" fill="#f8fafc" font-family="Inter, Arial, sans-serif" font-size="248" font-weight="900">AV</text>
  <path d="M340 738h124m96 0h124M464 738l48 44 48-44" fill="none" stroke="#7dd3fc" stroke-width="10" stroke-linecap="round" stroke-linejoin="round" opacity="0.78"/>
  <circle cx="340" cy="738" r="22" fill="#7dd3fc"/>
  <circle cx="512" cy="782" r="25" fill="#34d399"/>
  <circle cx="684" cy="738" r="22" fill="#fb7185"/>
  <circle cx="796" cy="318" r="14" fill="#34d399" opacity="0.9"/>
  <circle cx="220" cy="706" r="12" fill="#7dd3fc" opacity="0.8"/>
</svg>
