<svg xmlns="http://www.w3.org/2000/svg" viewBox="0 0 1024 1024" aria-hidden="true">
  <path fill="#000000" d="M512 112 764 210v196c0 198-90 338-252 440-162-102-252-242-252-440V210l252-98Z"/>
  <path fill="#000000" d="M354 162c70 56 102 128 82 216-45-68-84-140-82-216Zm108-58c86 72 124 166 98 288-60-88-104-174-98-288Zm128 28c68 66 88 144 48 244-36-80-52-160-48-244Z"/>
  <path fill="#000000" d="M260 346c-52 20-93 65-116 132 78-12 132-42 164-90l-48-42Zm504 0c52 20 93 65 116 132-78-12-132-42-164-90l48-42Z"/>
  <ellipse cx="512" cy="410" rx="258" ry="232" fill="#000000"/>
  <rect x="314" y="562" width="396" height="242" rx="42" fill="#000000"/>
</svg>
