<svg xmlns="http://www.w3.org/2000/svg" viewBox="0 0 1024 1024" aria-hidden="true">
  <path fill="#000000" d="M494 88c90 68 130 166 104 292 77 20 152 65 208 132 92 112 74 245-44 312-110 62-273 55-422-14-102-48-180-111-222-181 66-62 134-110 204-144-58-42-88-99-100-176 86 14 154 50 206 108-56-104-38-222 66-329Z"/>
  <path fill="#000000" d="M338 673c45-83 126-132 224-132 83 0 145 35 174 96-50-20-98-26-145-18-82 13-158 31-253 54Z"/>
  <path fill="#000000" d="M438 634a75 75 0 1 0 150 0 75 75 0 0 0-150 0Z"/>
</svg>
