<svg xmlns="http://www.w3.org/2000/svg" viewBox="0 0 1024 1024" aria-hidden="true">
  <title>AlgVault AV Guard robot mask icon</title>
  <desc>Single-color AV Guard robot mascot silhouette with black beanie, rounded robot head, and armored body.</desc>
  <path fill="#000000" d="M248 348c24-132 120-212 264-212s240 80 264 212c-70-24-158-36-264-36s-194 12-264 36Z"/>
  <path fill="#000000" d="M274 308c44-64 124-96 238-96s194 32 238 96c-60-20-140-30-238-30s-178 10-238 30Z"/>
  <path fill="#000000" d="M210 492c0-110 88-198 198-198h208c110 0 198 88 198 198v174c0 128-104 232-232 232H442c-128 0-232-104-232-232V492Z"/>
  <path fill="#000000" d="M286 650h452l-54 160H340l-54-160Z"/>
  <path fill="#000000" d="M144 574c56 0 102 46 102 102v78c-70-8-124-66-124-138 0-24 10-42 22-42Zm734 0c12 0 22 18 22 42 0 72-54 130-124 138v-78c0-56 46-102 102-102Z"/>
</svg>
