<svg xmlns="http://www.w3.org/2000/svg" width="1024" height="1024" viewBox="0 0 1024 1024" role="img" aria-labelledby="title desc">
  <title id="title">AlgVault AV Guard robot app icon</title>
  <desc id="desc">AlgVault AV Guard robot mascot with a black beanie, red armored face, and exchange-grade red and black app icon styling.</desc>
  <defs>
    <radialGradient id="bg" cx="50%" cy="42%" r="68%">
      <stop offset="0" stop-color="#43030b"/>
      <stop offset="0.48" stop-color="#120104"/>
      <stop offset="1" stop-color="#050505"/>
    </radialGradient>
    <linearGradient id="red" x1="290" y1="300" x2="724" y2="760" gradientUnits="userSpaceOnUse">
      <stop stop-color="#ff5b61"/>
      <stop offset="0.48" stop-color="#e11d48"/>
      <stop offset="1" stop-color="#8f0b1b"/>
    </linearGradient>
    <linearGradient id="metal" x1="280" y1="330" x2="760" y2="760" gradientUnits="userSpaceOnUse">
      <stop stop-color="#e5e7eb"/>
      <stop offset="0.44" stop-color="#737985"/>
      <stop offset="1" stop-color="#20242c"/>
    </linearGradient>
    <filter id="softShadow" x="-20%" y="-20%" width="140%" height="150%">
      <feDropShadow dx="0" dy="28" stdDeviation="28" flood-color="#000000" flood-opacity="0.58"/>
    </filter>
  </defs>
  <rect width="1024" height="1024" rx="226" fill="url(#bg)"/>
  <rect x="38" y="38" width="948" height="948" rx="214" fill="none" stroke="#e11d48" stroke-opacity="0.42" stroke-width="14"/>
  <g filter="url(#softShadow)">
    <path d="M248 350c24-128 120-206 264-206s240 78 264 206c-66-24-154-38-264-38s-198 14-264 38Z" fill="#09090c"/>
    <path d="M252 332c36-68 120-104 260-104s224 36 260 104c-60-24-146-36-260-36s-200 12-260 36Z" fill="#1a1a22"/>
    <rect x="278" y="306" width="468" height="84" rx="42" fill="#050507"/>
    <circle cx="512" cy="348" r="54" fill="#e11d48"/>
    <rect x="484" y="320" width="56" height="42" rx="10" fill="#d1d5db"/>
    <path d="M492 358 512 324l24 44h-14l-10-20-12 20h-14Z" fill="#e11d48"/>
    <path d="M626 318 584 396h36l-24 76 70-98h-40l38-56h-38Z" fill="#cfd2d8" stroke="#111114" stroke-width="8" stroke-linejoin="round"/>
    <rect x="214" y="354" width="596" height="472" rx="214" fill="url(#red)"/>
    <path d="M214 504c38-64 100-96 186-96h224c86 0 148 32 186 96v140c-64-30-142-46-234-46H448c-92 0-170 16-234 46V504Z" fill="#09090d" opacity="0.72"/>
    <path d="M250 552c36-64 92-96 168-96h188c76 0 132 32 168 96" fill="none" stroke="url(#metal)" stroke-width="30" stroke-linecap="round"/>
    <ellipse cx="406" cy="494" rx="84" ry="98" fill="#f8fafc"/>
    <ellipse cx="618" cy="494" rx="84" ry="98" fill="#f8fafc"/>
    <ellipse cx="408" cy="504" rx="54" ry="66" fill="#050507"/>
    <ellipse cx="620" cy="504" rx="54" ry="66" fill="#050507"/>
    <circle cx="430" cy="462" r="19" fill="#ffffff"/>
    <circle cx="642" cy="462" r="19" fill="#ffffff"/>
    <path d="M338 390c28-30 62-30 102 0" fill="none" stroke="#050507" stroke-width="24" stroke-linecap="round"/>
    <path d="M584 390c40-30 74-30 102 0" fill="none" stroke="#050507" stroke-width="24" stroke-linecap="round"/>
    <path d="M466 602c28 24 64 24 92 0" fill="none" stroke="#050507" stroke-width="12" stroke-linecap="round"/>
    <path d="M318 660h388l-34 86H352l-34-86Z" fill="#111114" stroke="url(#metal)" stroke-width="14" stroke-linejoin="round"/>
    <path d="M372 742h280" stroke="#e11d48" stroke-opacity="0.36" stroke-width="8" stroke-linecap="round"/>
  </g>
</svg>
